<?xml version="1.0" encoding="utf-8"?>
<!-- Generator: Adobe Illustrator 16.0.0, SVG Export Plug-In . SVG Version: 6.00 Build 0)  -->
<!DOCTYPE svg PUBLIC "-//W3C//DTD SVG 1.1//EN" "http://www.w3.org/Graphics/SVG/1.1/DTD/svg11.dtd">
<svg version="1.1" id="Layer_1" xmlns="http://www.w3.org/2000/svg" xmlns:xlink="http://www.w3.org/1999/xlink" x="0px" y="0px"
	 width="512px" height="512px" viewBox="0 0 512 512" enable-background="new 0 0 512 512" xml:space="preserve">
<path fill="none" d="M468.859,134.732C401.313,17.742,251.712-22.345,134.73,45.212C17.74,112.747-22.348,262.344,45.208,379.33
	c67.535,116.99,217.132,157.084,334.116,89.532C496.317,401.305,536.424,251.715,468.859,134.732z M354.87,426.482
	c-93.579,54.047-213.268,21.977-267.299-71.621c-54.043-93.579-21.961-213.266,71.62-267.288
	c93.585-54.043,213.268-21.975,267.302,71.62C480.529,252.787,448.457,372.448,354.87,426.482z M345.089,247.092l-128.083-74.7
	c-11.671-6.814-21.086-1.366-21.021,12.134l0.656,148.272c0.06,13.498,9.589,18.993,21.295,12.232l127.101-73.383
	C356.731,264.898,356.757,253.906,345.089,247.092z"/>
</svg>
